<?xml version="1.0" encoding="UTF-8" standalone="no"?>
<svg
   xmlns:dc="http://purl.org/dc/elements/1.1/"
   xmlns:cc="http://creativecommons.org/ns#"
   xmlns:rdf="http://www.w3.org/1999/02/22-rdf-syntax-ns#"
   xmlns:svg="http://www.w3.org/2000/svg"
   xmlns="http://www.w3.org/2000/svg"
   xmlns:sodipodi="http://sodipodi.sourceforge.net/DTD/sodipodi-0.dtd"
   xmlns:inkscape="http://www.inkscape.org/namespaces/inkscape"
   version="1.1"
   id="svg2"
   xml:space="preserve"
   width="468.71201"
   height="247.388"
   viewBox="0 0 468.71201 247.388"
   sodipodi:docname="cloud_2.ai"><metadata
     id="metadata8"><rdf:RDF><cc:Work
         rdf:about=""><dc:format>image/svg+xml</dc:format><dc:type
           rdf:resource="http://purl.org/dc/dcmitype/StillImage" /></cc:Work></rdf:RDF></metadata><defs
     id="defs6"><clipPath
       clipPathUnits="userSpaceOnUse"
       id="clipPath18"><path
         d="M 0,185.541 H 351.534 V 0 H 0 Z"
         id="path16" /></clipPath></defs><sodipodi:namedview
     pagecolor="#ffffff"
     bordercolor="#666666"
     borderopacity="1"
     objecttolerance="10"
     gridtolerance="10"
     guidetolerance="10"
     inkscape:pageopacity="0"
     inkscape:pageshadow="2"
     inkscape:window-width="640"
     inkscape:window-height="480"
     id="namedview4" /><g
     id="g10"
     inkscape:groupmode="layer"
     inkscape:label="cloud_2"
     transform="matrix(1.3333333,0,0,-1.3333333,0,247.388)"><g
       id="g12"><g
         id="g14"
         clip-path="url(#clipPath18)"><g
           id="g20"
           transform="translate(151.2382,0.0918)"><path
             d="m 0,0 c -23.83,0 -47.661,-0.014 -71.491,0.007 -10.507,0.009 -17.6,6.9 -18.248,17.255 -0.724,11.559 -9.23,20.528 -21.629,20.657 -7.665,0.08 -15.331,0.029 -22.996,0.039 -10.792,0.014 -16.729,9.281 -16.872,17.349 -0.146,8.23 6.734,18.339 17.755,18.367 15.831,0.039 31.663,0.033 47.494,0.013 13.697,-0.018 20.098,5.605 21.611,19.112 1.125,10.052 8.482,18.651 19.789,17.972 5.606,-0.337 11.213,-0.466 16.322,3.113 6.054,4.242 8.558,9.987 8.234,17.005 -0.37,8.012 -4.516,13.872 -12.056,16.482 -4.43,1.533 -9.326,2.305 -14.026,2.363 -19.494,0.24 -38.994,0.06 -58.491,0.071 -10.004,0.006 -17.051,5.961 -18.83,15.813 -0.864,4.784 5.117,15.626 10.012,17.159 4.208,1.318 8.676,2.462 13.042,2.508 22.828,0.24 45.66,0.101 68.491,0.103 36.096,0.004 72.196,0.23 108.287,-0.213 5.2,-0.064 11.174,-2.273 15.282,-5.443 3.285,-2.534 5.889,-8.002 5.984,-12.231 0.275,-12.305 9.601,-19.95 20.861,-19.889 20.83,0.113 41.674,-0.397 62.487,0.218 12.598,0.372 21.299,-9.224 18.879,-23.05 -1.108,-6.333 -8.622,-12.806 -15.16,-12.824 -30.663,-0.083 -61.325,-0.072 -91.987,-0.054 -8.13,0.005 -14.755,-2.41 -19.25,-9.842 -4.229,-6.993 -2.563,-17.576 3.459,-23.075 4.58,-4.183 9.714,-5.305 15.496,-5.291 10.832,0.025 21.669,-0.218 32.494,0.059 13.608,0.349 21.425,-11.971 18.184,-23.211 -1.904,-6.606 -7.989,-11.949 -14.888,-12.59 -8.892,-0.826 -17.798,-1.574 -26.648,-2.741 C 94.783,34.313 92.136,28.884 90.919,23.116 89.584,16.791 89.215,10.315 84.126,5.429 80.681,2.122 77.007,-0.112 71.991,-0.092 47.994,0.005 23.997,-0.048 0,-0.048 Z"
             style="fill:#231f20;fill-opacity:1;fill-rule:nonzero;stroke:none"
             id="path22" /></g></g></g></g></svg>
