<?xml version="1.0" encoding="UTF-8" standalone="no"?>
<svg
   xmlns:dc="http://purl.org/dc/elements/1.1/"
   xmlns:cc="http://creativecommons.org/ns#"
   xmlns:rdf="http://www.w3.org/1999/02/22-rdf-syntax-ns#"
   xmlns:svg="http://www.w3.org/2000/svg"
   xmlns="http://www.w3.org/2000/svg"
   xmlns:sodipodi="http://sodipodi.sourceforge.net/DTD/sodipodi-0.dtd"
   xmlns:inkscape="http://www.inkscape.org/namespaces/inkscape"
   version="1.1"
   id="svg2"
   xml:space="preserve"
   width="416.87601"
   height="194.07733"
   viewBox="0 0 416.87601 194.07733"
   sodipodi:docname="cloud_1.ai"><metadata
     id="metadata8"><rdf:RDF><cc:Work
         rdf:about=""><dc:format>image/svg+xml</dc:format><dc:type
           rdf:resource="http://purl.org/dc/dcmitype/StillImage" /></cc:Work></rdf:RDF></metadata><defs
     id="defs6"><clipPath
       clipPathUnits="userSpaceOnUse"
       id="clipPath18"><path
         d="M 0,145.558 H 312.657 V 0 H 0 Z"
         id="path16" /></clipPath></defs><sodipodi:namedview
     pagecolor="#ffffff"
     bordercolor="#666666"
     borderopacity="1"
     objecttolerance="10"
     gridtolerance="10"
     guidetolerance="10"
     inkscape:pageopacity="0"
     inkscape:pageshadow="2"
     inkscape:window-width="640"
     inkscape:window-height="480"
     id="namedview4" /><g
     id="g10"
     inkscape:groupmode="layer"
     inkscape:label="cloud_1"
     transform="matrix(1.3333333,0,0,-1.3333333,0,194.07733)"><g
       id="g12"><g
         id="g14"
         clip-path="url(#clipPath18)"><g
           id="g20"
           transform="translate(261.3474,71.4895)"><path
             d="m 0,0 c 11.333,0 22.666,0.053 33.999,-0.013 14.481,-0.086 21.287,-13.481 14.916,-26.095 -1.974,-3.909 -5.944,-7.149 -11.487,-7.438 -8.38,-0.439 -16.874,0.9 -25.109,-2.583 -7.36,-3.113 -11.021,-7.101 -11.224,-14.937 -0.29,-11.154 -9.281,-20.415 -20.731,-20.349 -40.998,0.236 -81.999,0.25 -122.995,-0.074 -8.356,-0.066 -18.963,9.174 -18.883,17.781 0.121,13.101 -8.574,19.422 -21.836,19.827 -19.814,0.606 -39.665,0.411 -59.491,0.039 -9.922,-0.186 -15.64,6.16 -17.867,13.063 -3.135,9.718 5.725,20.992 16.371,20.77 5.331,-0.111 10.666,0.031 15.999,-0.028 5.872,-0.066 10.866,2.098 15.369,5.706 4.399,3.525 6.537,8.501 6.489,13.695 -0.096,10.335 7.602,17.42 17.073,16.761 3.752,-0.261 7.643,-1.755 11.187,-1.113 6.766,1.224 13.992,2.436 19.777,5.802 5.173,3.011 7.147,9.742 7.856,15.913 1.207,10.514 8.381,17.258 18.998,17.259 40.499,0.004 81.002,0.273 121.496,-0.18 C 2.052,73.67 12.539,66.204 10.095,51.172 9.154,45.384 1.351,38.743 -5.332,38.679 -15.497,38.583 -25.665,38.775 -35.83,38.651 -41.701,38.579 -46.722,36.042 -50.507,31.701 -57.958,23.157 -56.28,5.733 -42.559,2.112 -38.781,1.116 -34.87,0.182 -30.997,0.077 -20.671,-0.204 -10.333,-0.019 0,-0.019 Z"
             style="fill:#231f20;fill-opacity:1;fill-rule:nonzero;stroke:none"
             id="path22" /></g></g></g></g></svg>
