<?xml version="1.0" encoding="UTF-8" standalone="no"?>
<svg
   xmlns:dc="http://purl.org/dc/elements/1.1/"
   xmlns:cc="http://creativecommons.org/ns#"
   xmlns:rdf="http://www.w3.org/1999/02/22-rdf-syntax-ns#"
   xmlns:svg="http://www.w3.org/2000/svg"
   xmlns="http://www.w3.org/2000/svg"
   xmlns:sodipodi="http://sodipodi.sourceforge.net/DTD/sodipodi-0.dtd"
   xmlns:inkscape="http://www.inkscape.org/namespaces/inkscape"
   version="1.1"
   id="svg2"
   xml:space="preserve"
   width="522.93335"
   height="424"
   viewBox="0 0 522.93335 424"
   sodipodi:docname="witch.ai"><metadata
     id="metadata8"><rdf:RDF><cc:Work
         rdf:about=""><dc:format>image/svg+xml</dc:format><dc:type
           rdf:resource="http://purl.org/dc/dcmitype/StillImage" /></cc:Work></rdf:RDF></metadata><defs
     id="defs6"><clipPath
       clipPathUnits="userSpaceOnUse"
       id="clipPath18"><path
         d="M 0,318 H 392.2 V 0 H 0 Z"
         id="path16" /></clipPath><clipPath
       clipPathUnits="userSpaceOnUse"
       id="clipPath26"><path
         d="M 3.80617,312.709 H 388.74 V 6.34389 H 3.80617 Z"
         id="path24" /></clipPath></defs><sodipodi:namedview
     pagecolor="#ffffff"
     bordercolor="#666666"
     borderopacity="1"
     objecttolerance="10"
     gridtolerance="10"
     guidetolerance="10"
     inkscape:pageopacity="0"
     inkscape:pageshadow="2"
     inkscape:window-width="640"
     inkscape:window-height="480"
     id="namedview4" /><g
     id="g10"
     inkscape:groupmode="layer"
     inkscape:label="witch"
     transform="matrix(1.3333333,0,0,-1.3333333,0,424)"><g
       id="g12"><g
         id="g14"
         clip-path="url(#clipPath18)"><g
           id="g20"><g
             id="g22" /><g
             id="g34"><g
               clip-path="url(#clipPath26)"
               id="g32"><g
                 transform="translate(303.9862,107.4071)"
                 id="g30"><path
                   d="M 0,0 C 0.042,-0.312 0.083,-0.625 0.125,-0.937 4.329,-0.06 8.532,0.818 12.736,1.696 8.038,3.358 3.829,2.635 0,0 m 54.901,-6.008 c -5.897,3.126 -11.503,3.368 -17.448,1.511 3.319,-5.745 10.112,-6.365 17.448,-1.511 m -162.731,32.81 c -2.805,-3.883 -6.181,-8.062 -8.987,-12.594 -2.422,-3.912 -1.572,-7.185 2.008,-10.211 6.116,-5.169 11.184,-11.177 15.263,-18.078 2.179,-3.687 4.622,-7.226 7.061,-10.751 2.575,-3.721 6.182,-4.598 10.041,-2.995 -8.39,18.054 -16.791,36.132 -25.386,54.629 m -57.854,-60.745 c -4.128,8.731 -1.169,15.688 4.551,21.745 4.227,4.476 8.86,8.585 13.475,12.674 4.04,3.579 6.642,7.859 5.997,13.271 -0.501,4.197 -1.551,8.428 -3.05,12.382 -2.112,5.574 -5.495,10.42 -10.447,14.187 -0.485,-0.852 -0.812,-1.422 -1.135,-1.995 -10.802,-19.159 -21.679,-38.277 -32.328,-57.522 -1.666,-3.011 -2.369,-6.575 -3.353,-9.931 -0.205,-0.697 0.05,-1.88 0.551,-2.371 2.304,-2.258 4.847,-4.309 8.345,-4.036 5.691,0.444 11.37,1.035 17.394,1.596 m 21.413,-58.136 c 0,3.971 -0.154,7.399 0.051,10.806 0.15,2.514 0.634,5.032 1.208,7.492 0.876,3.759 2.811,4.857 6.592,3.837 4.771,-1.287 9.504,-2.717 14.279,-3.988 1.137,-0.302 2.377,-0.214 4.416,-0.37 -1.089,0.99 -1.525,1.53 -2.082,1.872 -13.638,8.382 -27.105,16.963 -38.392,28.551 -1.303,1.338 -4.027,1.937 -6.033,1.825 -6.154,-0.346 -12.286,-1.145 -18.405,-1.935 -0.812,-0.105 -1.825,-1.023 -2.194,-1.819 -4.038,-8.724 -17.279,-10.835 -23.552,-3.518 -1.804,2.103 -3.865,3.039 -6.31,2.828 -7.122,-0.613 -14.228,-1.436 -21.329,-2.272 -17.605,-2.071 -35.204,-4.197 -52.806,-6.293 -0.547,-0.066 -1.123,0.032 -1.651,-0.091 -5.951,-1.385 -7.007,-1.778 -8.916,6.837 -0.21,0.946 -0.463,1.882 -0.785,3.179 1.581,0.238 2.951,0.526 4.335,0.64 18.574,1.526 37.157,2.953 55.723,4.57 8.331,0.726 16.647,1.692 24.936,2.802 4.378,0.586 7.09,3.69 8.542,7.602 3.096,8.345 5.964,16.777 8.838,25.203 2.31,6.77 5.923,12.679 10.606,18.113 9.674,11.224 15.46,24.434 19.245,38.677 1.286,4.841 3.261,9.559 5.457,14.074 1.051,2.163 3.253,3.826 5.118,5.512 1.219,1.101 1.756,2.051 0.379,3.224 -8.01,6.826 -10.448,16.631 -13.714,25.931 -1.151,3.279 -2.914,4.407 -6.267,4.511 -10.789,0.335 -21.57,0.948 -32.353,1.473 -0.764,0.037 -1.532,0.18 -2.281,0.349 -7.83,1.771 -8.721,4.53 -3.27,10.578 5.122,5.684 12.107,8.317 18.973,11.002 6.86,2.681 13.874,4.966 20.749,7.61 1.076,0.413 2.149,1.668 2.579,2.783 1.855,4.816 3.316,9.786 5.216,14.583 2.124,5.361 5.726,9.683 10.56,12.833 6.519,4.246 11.351,9.981 15.646,16.379 3.123,4.652 6.795,8.941 10.305,13.326 3.359,4.197 8.058,3.416 12.243,2.398 7.561,-1.838 14.479,-1.41 21.74,1.823 5.313,2.366 11.378,3.274 17.208,4.177 5.984,0.926 7.77,-0.444 10.428,-5.83 2.339,-4.739 4.848,-9.394 7.119,-14.165 1.221,-2.565 2.634,-3.308 5.452,-2.168 3.427,1.388 7.086,2.202 11.042,2.562 -4.511,-3.44 -8.867,-7.126 -13.646,-10.141 -1.132,-0.714 -4.176,0.263 -5.488,1.425 -3.871,3.43 -7.392,7.271 -10.892,11.095 -1.774,1.938 -3.878,2.929 -6.188,1.962 -9.736,-4.074 -18.688,-9.344 -22.653,-19.825 -1.217,-3.218 -0.807,-7.069 -1.022,-10.638 -0.078,-1.303 0.275,-2.625 0.288,-3.941 0.073,-7.093 1.059,-8.302 8.823,-8.935 6.037,-0.492 12.147,-0.005 18.207,-0.308 8.798,-0.44 17.59,-1.103 26.36,-1.925 1.351,-0.127 3.411,-1.444 3.628,-2.517 0.224,-1.11 -1.087,-3.242 -2.263,-3.807 -8.398,-4.037 -16.922,-7.812 -25.433,-11.61 -1.776,-0.792 -3.666,-1.329 -5.451,-2.675 1.703,-0.18 3.404,-0.496 5.109,-0.514 5.842,-0.06 10.843,-1.915 14.429,-6.704 1.351,-1.804 2.682,-1.648 4.798,-1.357 3.586,0.493 7.449,0.519 10.951,-0.303 4.456,-1.047 8.65,-3.182 12.989,-4.758 5.559,-2.019 11.221,-2.722 17.056,-0.809 -8.428,-7.212 -18.647,-6.214 -28.558,-6.564 -0.077,-0.326 -0.154,-0.652 -0.231,-0.978 2.156,-0.544 4.307,-1.525 6.471,-1.556 9.562,-0.138 18.453,-2.137 26.676,-7.36 4.42,-2.808 7.389,-2.4 16.996,-0.847 -3.258,-1.914 -6.516,-3.828 -9.987,-5.867 4.893,-2.264 10.187,-4.534 13.34,-9.891 -6.158,5.379 -12.744,1.386 -19.087,1.164 -4.274,-0.149 -8.527,-0.879 -13.101,-1.384 2.005,-2.815 4.324,-5.044 8.074,-5.066 2.646,-0.016 5.293,0.18 7.94,0.164 1.125,-0.007 2.248,-0.312 3.053,-0.434 -8.507,-2.982 -17.077,-5.987 -25.866,-9.068 1.214,-0.89 2.154,-1.58 3.094,-2.269 -8.267,0.305 -15.932,-5.401 -24.206,-2.235 -3.657,1.399 -7.152,3.36 -10.483,5.445 -5.254,3.289 -10.596,3.768 -16.838,1.5 3.822,-3.521 8.714,-1.145 13.083,-3.728 -11.224,-1.748 -21.614,-1.276 -32.155,1.257 -0.027,-0.579 -0.194,-1.136 -0.056,-1.604 5.229,-17.695 10.26,-35.454 15.851,-53.035 2.154,-6.774 5.62,-13.128 8.423,-19.702 1.615,-3.787 4.091,-5.766 8.476,-5.117 3.503,0.518 6.782,-0.699 8.742,-3.62 4.46,-6.645 10.943,-5.967 17.469,-5.325 2.285,0.224 4.659,0.46 6.772,1.268 2.139,0.818 4.359,2.008 5.93,3.63 6.671,6.886 12.734,14.401 19.736,20.916 8.643,8.042 18.199,8.596 28.623,2.986 2.609,-1.404 5.305,-2.785 8.128,-3.603 1.751,-0.508 3.957,-0.36 5.712,0.23 5.286,1.776 10.45,1.443 15.521,-0.437 1.581,-0.586 2.838,-2.045 4.739,-3.477 -0.068,-0.025 0.719,0.27 1.658,0.624 0.341,-0.884 0.668,-1.732 1.158,-3.002 2.589,1.703 4.943,3.251 7.297,4.798 0.462,-0.533 0.925,-1.066 1.388,-1.598 -2.486,-1.99 -4.935,-4.029 -7.469,-5.956 -2.418,-1.839 -4.925,-3.561 -7.651,-5.521 0.704,-0.221 1.116,-0.485 1.267,-0.378 4.391,3.102 9.54,3.865 14.645,4.573 1.987,0.276 4.197,0.101 6.108,-0.499 3.448,-1.082 4.131,-2.572 2.827,-5.938 -0.751,-1.938 -0.134,-2.727 1.436,-3.654 2.105,-1.244 4.039,-2.78 5.832,-4.643 -6.658,1.772 -12.937,6.479 -20.106,1.172 0.73,-1.368 1.431,-2.681 2.146,-4.019 -3.623,-2.266 -7.19,-3.073 -11.329,-1.438 -2.121,0.838 -4.705,1.848 -7.821,-0.667 2.932,-0.409 5.064,-0.535 7.102,-1.04 1.997,-0.495 4.622,-0.731 3.66,-4.53 -3.665,3.074 -7.481,2.852 -11.555,1.034 2.453,-1.083 4.883,-1.955 7.107,-3.194 2.291,-1.278 3.964,-3.107 3.288,-5.407 -3.059,1.872 -5.95,4.842 -9.194,5.297 -3.39,0.475 -7.275,-1.081 -10.665,-2.442 -5.777,-2.319 -11.1,-6.068 -17.032,-7.639 -14.888,-3.942 -29.181,-0.636 -42.39,6.488 -8.154,4.398 -16.518,4.681 -25.268,4.403 -10.897,-0.348 -21.802,-0.615 -32.703,-0.586 -4.331,0.011 -4.926,-0.235 -3.25,-4.255 4.334,-10.397 7.89,-21.03 9.347,-32.226 0.607,-4.667 0.509,-9.434 0.605,-14.157 0.089,-4.409 -2.548,-6.78 -6.41,-8.199 -1.636,-0.601 -3.132,-1.68 -4.802,-2.066 -2.261,-0.523 -4.846,-1.331 -6.912,-0.723 -10.204,3.001 -20.292,6.403 -30.399,9.729 -1.787,0.588 -2.949,0.291 -3.694,-1.511 -0.894,-2.161 -2.298,-3.569 -4.866,-2.628 -2.617,0.96 -2.948,3.029 -2.446,5.416 0.273,1.293 0.617,2.571 0.933,3.855 0.575,2.335 -0.697,3.407 -2.669,4.197 -2.37,0.948 -2.596,-0.961 -3.121,-2.269 -1.228,-3.064 -2.206,-6.263 -6.58,-8.022"
                   style="fill:#231f20;fill-opacity:1;fill-rule:nonzero;stroke:none"
                   id="path28" /></g></g></g></g></g></g></g></svg>
